# xmcd
#
# Track frame offsets:
#	150
#	20666
#	38768
#	52701
#	77961
#	90414
#	104495
#	119810
#	137471
#	154799
#	171534
#	187283
#	204195
#	220533
#	236452
#	252925
#	266945
#	281896
#	295950
#	309873
#
# Disc length: 4388 seconds
# Revision: 3
# Processed by: cddbd v1.5.2PL0 Copyright (c) Steve Scherf et al.
# Submitted via: dBpowerAMP V12.0
#
DISCID=25112214
DTITLE=Various Artist - 100 Hits: The Best Country Album
DYEAR=2018
DGENRE=Country
TTITLE0=Shawn Mullins - Lullaby
TTITLE1=Lonestar - Amazed
TTITLE2=Ward Thomas - Guilty Flowers
TTITLE3=Sara Evans - Born To Fly
TTITLE4=Chris Young - You
TTITLE5=Love and Theft - Angel Eyes
TTITLE6=Montgomery Gentry - If You Ever Stop Loving Me
TTITLE7=Phil Vassar - Just Another Day In Paradise
TTITLE8=Alan Jackson and Jimmy Buffett - It's Five O'clock Somewhere
TTITLE9=Ronnie Milsap - Smoky Mountain Rain
TTITLE10=Brooks and Dunn - My Maria
TTITLE11=Martina McBride - Wild Angels
TTITLE12=Joe Diffie - Pickup Man
TTITLE13=Mary Chapin Carpenter - I Feel Lucky
TTITLE14=Shenandoah - Next To You, Next To Me
TTITLE15=Exile - Woke Up In Love
TTITLE16=Alabama - Love In The First Degree
TTITLE17=Ricky Van Shelton - I'll Leave This World Loving You
TTITLE18=Patty Loveless - Here I Am
TTITLE19=Travis Tritt - Best Of Intentions
EXTD=
EXTT0=
EXTT1=
EXTT2=
EXTT3=
EXTT4=
EXTT5=
EXTT6=
EXTT7=
EXTT8=
EXTT9=
EXTT10=
EXTT11=
EXTT12=
EXTT13=
EXTT14=
EXTT15=
EXTT16=
EXTT17=
EXTT18=
EXTT19=
PLAYORDER=
